<?xml version="1.0" encoding="UTF-8"?>
<svg xmlns="http://www.w3.org/2000/svg" xmlns:xlink="http://www.w3.org/1999/xlink" width="512pt" height="512pt" viewBox="0 0 512 512" version="1.1">
<g id="surface1">
<path style=" stroke:none;fill-rule:nonzero;fill:#FAEFDE;fill-opacity:1;" d="M 169.921875 23.519531 L 400 23.519531 C 413.253906 23.519531 424 34.265625 424 47.519531 L 424 431.519531 C 424 444.773438 413.253906 455.519531 400 455.519531 L 96 455.519531 C 82.746094 455.519531 72 444.773438 72 431.519531 L 72 121.441406 C 72.003906 115.078125 74.539063 108.976563 79.039063 104.480469 L 152.960938 30.558594 C 157.457031 26.058594 163.558594 23.527344 169.921875 23.519531 Z "/>
<path style=" stroke:none;fill-rule:nonzero;fill:#FFF7F0;fill-opacity:1;" d="M 72 456 L 70.800781 380.320313 L 418.71875 32.480469 L 424 216 L 184 456 Z M 70.800781 297.199219 L 344.480469 23.519531 L 390.480469 25.519531 L 72 344 Z M 70.800781 249.199219 L 296 24 L 320 24 L 70.800781 273.199219 Z "/>
<path style=" stroke:none;fill-rule:nonzero;fill:#FFFFFF;fill-opacity:1;" d="M 348 88 L 357.921875 106.078125 L 376 116 L 357.921875 125.921875 L 348 144 L 338.078125 125.921875 L 320 116 L 338.078125 106.078125 Z M 227.359375 72 L 234.160156 84.480469 L 246.71875 91.359375 L 234.160156 98.160156 L 227.359375 110.71875 L 220.480469 98.160156 L 208 91.359375 L 220.480469 84.480469 Z M 117.199219 320 L 121.839844 328.480469 L 130.398438 333.199219 L 121.839844 337.839844 L 117.199219 346.398438 L 112.480469 337.839844 L 104 333.199219 L 112.480469 328.480469 Z "/>
<path style=" stroke:none;fill-rule:nonzero;fill:#BBDEF9;fill-opacity:1;" d="M 168 24 L 168 120 L 72 120 Z "/>
<path style=" stroke:none;fill-rule:nonzero;fill:#ED7899;fill-opacity:1;" d="M 392 312 C 338.980469 312 296 354.980469 296 408 C 296 461.019531 338.980469 504 392 504 C 445.019531 504 488 461.019531 488 408 C 488 354.980469 445.019531 312 392 312 Z "/>
<path style=" stroke:none;fill-rule:nonzero;fill:#8D6C9F;fill-opacity:1;" d="M 328 176 L 296 176 C 291.582031 176 288 179.582031 288 184 C 288 188.417969 291.582031 192 296 192 L 328 192 C 332.417969 192 336 188.417969 336 184 C 336 179.582031 332.417969 176 328 176 Z M 136 192 L 264 192 C 268.417969 192 272 188.417969 272 184 C 272 179.582031 268.417969 176 264 176 L 136 176 C 131.582031 176 128 179.582031 128 184 C 128 188.417969 131.582031 192 136 192 Z M 136 224 L 296 224 C 300.417969 224 304 220.417969 304 216 C 304 211.582031 300.417969 208 296 208 L 136 208 C 131.582031 208 128 211.582031 128 216 C 128 220.417969 131.582031 224 136 224 Z M 272 288 L 136 288 C 131.582031 288 128 291.582031 128 296 C 128 300.417969 131.582031 304 136 304 L 272 304 C 276.417969 304 280 300.417969 280 296 C 280 291.582031 276.417969 288 272 288 Z M 312 256 L 136 256 C 131.582031 256 128 259.582031 128 264 C 128 268.417969 131.582031 272 136 272 L 312 272 C 316.417969 272 320 268.417969 320 264 C 320 259.582031 316.417969 256 312 256 Z "/>
<path style=" stroke:none;fill-rule:nonzero;fill:#F9EFDE;fill-opacity:1;" d="M 420.320313 368.398438 L 392 396.71875 L 363.679688 368.398438 C 361.726563 366.117188 358.65625 365.121094 355.734375 365.824219 C 352.808594 366.527344 350.527344 368.808594 349.824219 371.734375 C 349.121094 374.65625 350.117188 377.726563 352.398438 379.679688 L 380.71875 408 L 352.398438 436.320313 C 350.117188 438.273438 349.121094 441.34375 349.824219 444.265625 C 350.527344 447.191406 352.808594 449.472656 355.734375 450.175781 C 358.65625 450.878906 361.726563 449.882813 363.679688 447.601563 L 392 419.28125 L 420.320313 447.601563 C 423.492188 450.316406 428.226563 450.136719 431.179688 447.179688 C 434.136719 444.226563 434.316406 439.492188 431.601563 436.320313 L 403.28125 408 L 431.601563 379.679688 C 434.316406 376.507813 434.136719 371.773438 431.179688 368.820313 C 428.226563 365.863281 423.492188 365.683594 420.320313 368.398438 Z "/>
<path style=" stroke:none;fill-rule:nonzero;fill:#8D6C9F;fill-opacity:1;" d="M 104 400 C 99.582031 400 96 403.582031 96 408 L 96 424 C 96 428.417969 99.582031 432 104 432 C 108.417969 432 112 428.417969 112 424 L 112 408 C 112 403.582031 108.417969 400 104 400 Z M 144 400 C 139.582031 400 136 403.582031 136 408 L 136 424 C 136 428.417969 139.582031 432 144 432 C 148.417969 432 152 428.417969 152 424 L 152 408 C 152 403.582031 148.417969 400 144 400 Z M 184 400 C 179.582031 400 176 403.582031 176 408 L 176 424 C 176 428.417969 179.582031 432 184 432 C 188.417969 432 192 428.417969 192 424 L 192 408 C 192 403.582031 188.417969 400 184 400 Z M 224 400 C 219.582031 400 216 403.582031 216 408 L 216 424 C 216 428.417969 219.582031 432 224 432 C 228.417969 432 232 428.417969 232 424 L 232 408 C 232 403.582031 228.417969 400 224 400 Z M 264 400 C 259.582031 400 256 403.582031 256 408 L 256 424 C 256 428.417969 259.582031 432 264 432 C 268.417969 432 272 428.417969 272 424 L 272 408 C 272 403.582031 268.417969 400 264 400 Z "/>
<path style=" stroke:none;fill-rule:nonzero;fill:#8D6C9F;fill-opacity:1;" d="M 432 312 L 432 40 C 432 26.746094 421.253906 16 408 16 L 173.28125 16 C 162.664063 15.980469 152.476563 20.183594 144.960938 27.679688 L 75.679688 96.960938 C 68.183594 104.476563 63.980469 114.664063 64 125.28125 L 64 440 C 64 453.253906 74.746094 464 88 464 L 304.480469 464 C 328.585938 501.785156 374.183594 519.875 417.636719 508.894531 C 461.089844 497.914063 492.621094 460.332031 495.882813 415.632813 C 499.140625 370.929688 473.398438 329.171875 432 312 Z M 156.320313 39.039063 C 157.441406 37.90625 158.675781 36.886719 160 36 L 160 104 C 160 108.417969 156.417969 112 152 112 L 84 112 C 84.886719 110.675781 85.90625 109.441406 87.039063 108.320313 Z M 88 448 C 83.582031 448 80 444.417969 80 440 L 80 128 L 152 128 C 165.253906 128 176 117.253906 176 104 L 176 32 L 408 32 C 412.417969 32 416 35.582031 416 40 L 416 306.878906 C 377.976563 297.875 338.117188 310.941406 312.804688 340.710938 C 287.492188 370.476563 281.003906 411.917969 296 448 Z M 392 496 C 343.398438 496 304 456.601563 304 408 C 304 359.398438 343.398438 320 392 320 C 440.601563 320 480 359.398438 480 408 C 480 456.601563 440.601563 496 392 496 Z "/>
</g>
</svg>
