<?xml version="1.0" encoding="UTF-8"?>
<svg xmlns="http://www.w3.org/2000/svg" xmlns:xlink="http://www.w3.org/1999/xlink" width="512pt" height="512pt" viewBox="0 0 512 512" version="1.1">
<g id="surface1">
<path style=" stroke:none;fill-rule:nonzero;fill:#72CAAF;fill-opacity:1;" d="M 434.320313 92.558594 L 406.320313 90.71875 C 360.636719 87.71875 316.984375 70.738281 281.28125 42.078125 L 270.480469 33.441406 C 262.03125 26.613281 249.96875 26.613281 241.519531 33.441406 L 230.71875 42.078125 C 194.996094 70.753906 151.3125 87.734375 105.601563 90.71875 L 77.601563 92.558594 C 64.859375 93.457031 55.222656 104.453125 56 117.199219 L 61.359375 190.960938 C 67.234375 274.464844 106.125 352.195313 169.441406 406.960938 L 240.71875 468.960938 C 245.039063 472.71875 250.480469 490.640625 255.921875 490.640625 C 261.359375 490.640625 266.800781 472.71875 271.121094 468.960938 L 342.398438 406.960938 C 405.707031 352.1875 444.597656 274.464844 450.480469 190.960938 L 456 117.121094 C 456.777344 104.359375 447.078125 93.375 434.320313 92.558594 Z "/>
<path style=" stroke:none;fill-rule:nonzero;fill:#66BFA1;fill-opacity:1;" d="M 434.320313 92.558594 L 406.320313 90.71875 C 360.636719 87.71875 316.984375 70.738281 281.28125 42.078125 L 270.480469 33.441406 C 266.378906 30.132813 261.269531 28.328125 256 28.320313 L 256 482.878906 C 261.441406 482.878906 266.878906 472.960938 271.199219 469.199219 L 342.480469 407.199219 C 405.785156 352.429688 444.675781 274.703125 450.558594 191.199219 L 456 117.121094 C 456.777344 104.359375 447.078125 93.375 434.320313 92.558594 Z "/>
<path style=" stroke:none;fill-rule:nonzero;fill:#7DD8BA;fill-opacity:1;" d="M 364 152 L 373.921875 170.078125 L 392 180 L 373.921875 189.921875 L 364 208 L 354.078125 189.921875 L 336 180 L 354.078125 170.078125 Z M 163.359375 192 L 170.160156 204.480469 L 182.71875 211.359375 L 170.160156 218.160156 L 163.359375 230.71875 L 156.480469 218.160156 L 144 211.359375 L 156.480469 204.480469 Z M 325.199219 296 L 329.839844 304.480469 L 338.398438 309.199219 L 329.839844 313.839844 L 325.199219 322.398438 L 320.480469 313.839844 L 312 309.199219 L 320.480469 304.480469 Z "/>
<path style=" stroke:none;fill-rule:nonzero;fill:#FAEFDE;fill-opacity:1;" d="M 255.921875 299.28125 C 247.082031 299.28125 239.921875 306.445313 239.921875 315.28125 C 239.921875 324.117188 247.082031 331.28125 255.921875 331.28125 C 264.757813 331.28125 271.921875 324.117188 271.921875 315.28125 C 271.921875 306.445313 264.757813 299.28125 255.921875 299.28125 Z M 272 147.28125 L 248 147.28125 C 225.910156 147.28125 208 165.1875 208 187.28125 C 208 191.699219 211.582031 195.28125 216 195.28125 C 220.417969 195.28125 224 191.699219 224 187.28125 C 224 174.023438 234.746094 163.28125 248 163.28125 L 272 163.28125 C 285.253906 163.28125 296 174.023438 296 187.28125 L 296 194 C 296 205.667969 288.519531 216.019531 277.441406 219.679688 C 259.84375 225.539063 247.980469 242.011719 248 260.558594 L 248 275.28125 C 248 279.699219 251.582031 283.28125 256 283.28125 C 260.417969 283.28125 264 279.699219 264 275.28125 L 264 260.558594 C 264 248.890625 271.480469 238.539063 282.558594 234.878906 C 300.15625 229.019531 312.019531 212.546875 312 194 L 312 187.28125 C 312 165.1875 294.089844 147.28125 272 147.28125 Z "/>
<path style=" stroke:none;fill-rule:nonzero;fill:#8D6C9F;fill-opacity:1;" d="M 352.71875 104.800781 C 328.441406 97.644531 305.5 86.566406 284.800781 72 L 264 57.839844 C 258.496094 53.996094 251.183594 53.996094 245.679688 57.839844 L 225.28125 72 C 190.597656 96.285156 149.925781 110.617188 107.679688 113.441406 L 102.480469 113.441406 C 98.0625 113.59375 94.605469 117.300781 94.761719 121.71875 C 94.914063 126.136719 98.621094 129.59375 103.039063 129.441406 L 108.800781 129.441406 C 153.980469 126.425781 197.472656 111.097656 234.558594 85.121094 L 255.121094 70.71875 L 275.679688 85.121094 C 297.800781 100.628906 322.3125 112.410156 348.238281 120 C 352.480469 121.238281 356.921875 118.800781 358.160156 114.558594 C 359.398438 110.320313 356.960938 105.878906 352.71875 104.640625 Z M 407.121094 113.921875 L 402.398438 113.921875 C 396.320313 113.519531 390.160156 112.878906 384.160156 112 C 379.742188 111.359375 375.640625 114.421875 375 118.839844 C 374.359375 123.257813 377.421875 127.359375 381.839844 128 C 388.238281 128.960938 394.800781 129.679688 401.359375 130.078125 L 406.640625 130.078125 C 411.058594 130.234375 414.765625 126.777344 414.921875 122.359375 C 415.074219 117.941406 411.617188 114.234375 407.199219 114.078125 Z "/>
<path style=" stroke:none;fill-rule:nonzero;fill:#8D6C9F;fill-opacity:1;" d="M 440 82.480469 L 411.039063 80.558594 C 363.613281 77.542969 318.273438 59.972656 281.199219 30.238281 L 270 21.28125 C 261.230469 14.261719 248.769531 14.261719 240 21.28125 L 228.800781 30.238281 C 191.820313 59.917969 146.597656 77.488281 99.28125 80.558594 L 70.320313 82.480469 C 57.148438 83.378906 47.175781 94.746094 48 107.921875 L 53.601563 200 C 59.613281 286.601563 99.925781 367.230469 165.601563 424 L 239.441406 488 C 248.472656 495.867188 261.925781 495.867188 270.960938 488 L 344.800781 424 C 410.46875 367.222656 450.78125 286.601563 456.800781 200 L 462.320313 107.679688 C 463.007813 94.59375 453.070313 83.378906 440 82.480469 Z M 440.878906 199.199219 C 435.34375 277.382813 400.382813 350.566406 343.039063 404 L 343.039063 403.441406 C 343.039063 399.023438 339.457031 395.441406 335.039063 395.441406 C 330.621094 395.441406 327.039063 399.023438 327.039063 403.441406 L 327.039063 418.238281 L 260.320313 476.238281 C 257.3125 478.847656 252.847656 478.847656 249.839844 476.238281 L 183.121094 418.160156 L 183.121094 403.519531 C 183.121094 399.101563 179.539063 395.519531 175.121094 395.519531 C 170.703125 395.519531 167.121094 399.101563 167.121094 403.519531 L 167.121094 404 C 109.875 350.550781 75.003906 277.40625 69.519531 199.28125 L 64 106.960938 C 63.726563 102.566406 67.050781 98.78125 71.441406 98.480469 L 100.398438 96.558594 C 150.957031 93.269531 199.277344 74.5 238.800781 42.800781 L 250 33.839844 C 252.921875 31.5 257.078125 31.5 260 33.839844 L 271.199219 42.800781 C 310.722656 74.496094 359.042969 93.265625 409.601563 96.558594 L 438.558594 98.480469 C 442.949219 98.78125 446.273438 102.566406 446 106.960938 Z "/>
<path style=" stroke:none;fill-rule:nonzero;fill:#8D6C9F;fill-opacity:1;" d="M 215.039063 395.519531 C 210.621094 395.519531 207.039063 399.101563 207.039063 403.519531 L 207.039063 419.519531 C 207.039063 423.9375 210.621094 427.519531 215.039063 427.519531 C 219.457031 427.519531 223.039063 423.9375 223.039063 419.519531 L 223.039063 403.519531 C 223.039063 399.101563 219.457031 395.519531 215.039063 395.519531 Z M 255.039063 395.519531 C 250.621094 395.519531 247.039063 399.101563 247.039063 403.519531 L 247.039063 419.519531 C 247.039063 423.9375 250.621094 427.519531 255.039063 427.519531 C 259.457031 427.519531 263.039063 423.9375 263.039063 419.519531 L 263.039063 403.519531 C 263.039063 399.101563 259.457031 395.519531 255.039063 395.519531 Z M 295.039063 395.519531 C 290.621094 395.519531 287.039063 399.101563 287.039063 403.519531 L 287.039063 419.519531 C 287.039063 423.9375 290.621094 427.519531 295.039063 427.519531 C 299.457031 427.519531 303.039063 423.9375 303.039063 419.519531 L 303.039063 403.519531 C 303.039063 399.101563 299.457031 395.519531 295.039063 395.519531 Z "/>
</g>
</svg>
